<svg xmlns="http://www.w3.org/2000/svg" viewBox="0.0 0.0 60.03 62.96" width="308.77905777058595" height="323.8561602007903">
  <path d="M2,50.272h9.324v2.884H5.087v2.885h5.2v2.884h-5.2V61.81h6.237v2.884H2Zm29.468,0H28.381V64.694h8.827V61.83H31.468Zm-9.361,9A2.441,2.441,0,0,1,19.475,62a2.425,2.425,0,0,1-2.631-2.7V50.272H13.756v9.045c0,3.379,2.031,5.645,5.719,5.645,3.647,0,5.719-2.307,5.719-5.666V50.272H22.107Zm39.927,5.419H58.512l-2.673-5.213H54.367v5.213H51.28V50.272h4.993c3.046,0,5.181,1.813,5.181,4.512a4.4,4.4,0,0,1-2.59,4.224ZM56.315,56.7a1.763,1.763,0,0,0,1.927-1.854c0-.927-.643-1.71-2.031-1.71H54.367V56.7h1.948M39.184,64.694h9.324V61.81H42.271V58.926h5.2V56.041h-5.2V53.157h6.237V50.272H39.184ZM8.766,36.439H46.184l3.409-9.308L9.211,35.225Zm4.6-12.565H50.786l3.408-9.308L13.812,22.66Zm4.6-12.566H55.387L58.795,2,18.413,10.094Z" transform="translate(-2 -2)" fill="#000"/>
</svg>