<svg data-name="Layer 1" id="Layer_1" viewBox="0 0 1002.77 694.28" xmlns="http://www.w3.org/2000/svg">
<defs>
<style>
            .cls-1 {
              fill: #fff
            }
          </style>
</defs>
<path class="cls-1" d="m976.06 16.93h0C965.96 6.03 954.63.5 941.4.03c-27.63-.95-64.35 20.93-115.52 68.93-83.46 78.31-201.6 207.14-281.67 300.08l-.83.97.9.91c9.68 9.78 19.96 19.57 30.55 29.08l.98.88.93-.93c94.39-94.44 214.86-206.29 286.45-265.96 26.15-21.79 43.57-29.94 53.27-24.91 9.06 4.7 12.32 21.04 9.96 49.94-4.88 59.86-23.5 146.12-51.09 236.67-25.23 82.82-54.73 158.33-77.01 197.06-14 24.34-28.63 37.43-44.73 40-18.23 2.92-39.24-6.95-66.11-31.07-44.7-40.12-113.42-113.56-224.58-235.05l-14.31-15.64C350.61 243.88 258.06 142.7 176.93 68.93 138.27 33.8 109.13 13.55 85.23 5.2 61.07-3.23 41.77.82 26.25 17.58.77 45.08-6.07 93.87 5.33 166.73c11.02 70.45 33.63 163.18 60.47 248.06 31.04 98.14 65.19 177.7 96.16 224.04 22.06 33 45.23 50.89 70.83 54.69 3.42.51 6.89.76 10.42.76 25.2.0 53.28-12.96 85.44-39.35 41.42-34 91.46-85.05 126.15-121.89l.89-.95-.89-.95c-9.57-10.21-19.44-20.36-29.33-30.17l-.99-.98-.97.99c-39.39 39.98-94.01 91.23-129.18 115.19-21.02 14.31-36.24 19.35-49.37 16.34-13.83-3.17-26.69-15.8-40.45-39.74-22.27-38.73-51.78-114.24-77.01-197.06-27.58-90.55-46.2-176.82-51.09-236.67-2.33-28.57.98-45.34 9.84-49.84 8.91-4.52 24.57 2.82 46.56 21.82 51.97 44.91 147.34 141.89 231.48 227.45 9.32 9.48 18.53 18.85 27.57 28.03 96.29 97.81 194.84 197.49 249.22 247.63 37.26 34.36 69.97 57.66 108.49 59.67 35.94 1.88 64.96-15.58 91.28-54.96 30.97-46.34 65.12-125.9 96.16-224.04 26.84-84.87 49.45-177.6 60.48-248.06 11.4-72.88 4.39-121.88-21.44-149.8z"></path>
</svg>