<?xml version="1.0" encoding="UTF-8" standalone="no"?>
<!DOCTYPE svg PUBLIC "-//W3C//DTD SVG 1.1//EN" "http://www.w3.org/Graphics/SVG/1.1/DTD/svg11.dtd">
<svg width="100%" height="100%" viewBox="0 0 882 882" version="1.1" xmlns="http://www.w3.org/2000/svg" xmlns:xlink="http://www.w3.org/1999/xlink" xml:space="preserve" xmlns:serif="http://www.serif.com/" style="fill-rule:evenodd;clip-rule:evenodd;stroke-linejoin:round;stroke-miterlimit:2;">
    <g transform="matrix(2.19281e-16,3.58115,-3.58113,2.19282e-16,723.073,-848.202)">
        <path d="M421.704,66.48L483.141,152.491L364.505,152.491L364.505,5.043L483.141,5.043L421.704,66.48ZM416.196,71.988L372.343,115.841L372.343,144.653L468.1,144.653L416.196,71.988Z" style="fill:url(#_Linear1);fill-rule:nonzero;"/>
    </g>
    <g transform="matrix(2.19281e-16,-3.58115,3.58113,2.19282e-16,159.679,1723.38)">
        <path d="M362.174,152.279L362.174,4.831L370.437,4.831L473.396,105.037L473.396,4.831L481.235,4.831L481.235,152.279L362.174,152.279Z" style="fill:url(#_Linear2);fill-rule:nonzero;"/>
    </g>
    <defs>
        <linearGradient id="_Linear1" x1="0" y1="0" x2="1" y2="0" gradientUnits="userSpaceOnUse" gradientTransform="matrix(182.09,0,0,182.09,354.952,104.087)"><stop offset="0" style="stop-color:rgb(222,255,252);stop-opacity:1"/><stop offset="1" style="stop-color:rgb(255,229,243);stop-opacity:1"/></linearGradient>
        <linearGradient id="_Linear2" x1="0" y1="0" x2="1" y2="0" gradientUnits="userSpaceOnUse" gradientTransform="matrix(182.09,0,0,182.09,354.952,104.087)"><stop offset="0" style="stop-color:rgb(222,255,252);stop-opacity:1"/><stop offset="1" style="stop-color:rgb(255,229,243);stop-opacity:1"/></linearGradient>
    </defs>
</svg>
